<svg width="15" height="15" viewBox="0 0 15 15" fill="none" xmlns="http://www.w3.org/2000/svg">
<g clip-path="url(#clip0_4_33)">
<path d="M7.969 0H10.3127C10.5706 0 10.7815 0.210937 10.7815 0.46875V2.34375C10.7815 2.60156 10.5706 2.8125 10.3127 2.8125H7.969V3.75H13.594C14.1126 3.75 14.5315 4.16895 14.5315 4.6875C14.5315 5.20605 14.1126 5.625 13.594 5.625H1.4065C0.887943 5.625 0.468997 5.20605 0.468997 4.6875C0.468997 4.16895 0.887943 3.75 1.4065 3.75H7.0315V0.46875C7.0315 0.210937 7.24244 0 7.50025 0H7.969ZM1.87525 6.5625H3.75025V12.1875H4.92212V6.5625H6.79712V12.1875H8.20337V6.5625H10.0784V12.1875H11.2502V6.5625H13.1252V12.3135C13.1428 12.3223 13.1604 12.334 13.178 12.3457L14.5842 13.2832C14.927 13.5117 15.0823 13.9395 14.9622 14.335C14.842 14.7305 14.4758 15 14.0627 15H0.937747C0.524661 15 0.16138 14.7305 0.041263 14.335C-0.0788542 13.9395 0.0734896 13.5117 0.419193 13.2832L1.82544 12.3457C1.84302 12.334 1.8606 12.3252 1.87818 12.3135V6.5625H1.87525Z" fill="#222831"/>
</g>
<defs>
<clipPath id="clip0_4_33">
<rect width="15" height="15" fill="white"/>
</clipPath>
</defs>
</svg>
