<svg width="13" height="13" viewBox="0 0 13 13" fill="none" xmlns="http://www.w3.org/2000/svg">
<g clip-path="url(#clip0_4_28)">
<path d="M13 2.03125C13 2.48828 12.6369 2.90977 12.025 3.25C11.2861 3.65879 10.1842 3.94824 8.91973 4.03457C8.82578 3.98887 8.73184 3.9457 8.63281 3.90762C7.63242 3.48867 6.30195 3.25 4.875 3.25C4.66426 3.25 4.45859 3.25508 4.25293 3.26523L4.225 3.25C3.61309 2.90977 3.25 2.48828 3.25 2.03125C3.25 0.908984 5.43359 0 8.125 0C10.8164 0 13 0.908984 13 2.03125ZM4.08027 4.09043C4.33926 4.07266 4.60586 4.0625 4.875 4.0625C6.4543 4.0625 7.85586 4.3748 8.74707 4.85977C9.37676 5.20254 9.75 5.6291 9.75 6.09375C9.75 6.19531 9.73223 6.29434 9.69668 6.39082C9.57988 6.72598 9.26504 7.0332 8.80801 7.29219C8.80547 7.29473 8.80039 7.29473 8.79785 7.29727C8.79023 7.30234 8.78262 7.30488 8.775 7.30996C7.88633 7.80254 6.46953 8.12246 4.875 8.12246C3.36172 8.12246 2.0084 7.83555 1.11211 7.38359C1.06387 7.36074 1.01816 7.33535 0.972461 7.30996C0.363086 6.97227 0 6.55078 0 6.09375C0 5.21016 1.35586 4.45605 3.25 4.1793C3.5166 4.14121 3.79336 4.11074 4.08027 4.09043ZM10.5625 6.09375C10.5625 5.5377 10.2934 5.08066 9.95059 4.73789C10.6691 4.62617 11.3268 4.44844 11.8854 4.21738C12.2992 4.04473 12.6852 3.83145 13 3.56992V4.46875C13 4.95879 12.5811 5.41074 11.8879 5.76113C11.5172 5.94902 11.0652 6.10898 10.5574 6.23086C10.56 6.18516 10.5625 6.14199 10.5625 6.09629V6.09375ZM9.75 8.53125C9.75 8.98828 9.38691 9.40977 8.775 9.75C8.7293 9.77539 8.68359 9.79824 8.63535 9.82363C7.7416 10.2756 6.38828 10.5625 4.875 10.5625C3.28047 10.5625 1.86367 10.2426 0.975 9.75C0.363086 9.40977 0 8.98828 0 8.53125V7.63242C0.317383 7.89395 0.700781 8.10723 1.11465 8.27988C2.11758 8.69883 3.44805 8.9375 4.875 8.9375C6.30195 8.9375 7.63242 8.69883 8.63535 8.27988C8.8334 8.19863 9.02383 8.10469 9.2041 8.00313C9.35898 7.9168 9.50371 7.82031 9.64082 7.71875C9.67891 7.69082 9.71445 7.66035 9.75 7.63242V7.71875V7.86348V8.53125ZM10.5625 8.53125V7.71875V7.06113C11.0449 6.95449 11.4893 6.81992 11.8854 6.65488C12.2992 6.48223 12.6852 6.26895 13 6.00742V6.90625C13 7.17285 12.873 7.43945 12.6217 7.69082C12.2078 8.10469 11.4791 8.44492 10.5574 8.66582C10.56 8.62266 10.5625 8.57695 10.5625 8.53125ZM4.875 11.375C6.30195 11.375 7.63242 11.1363 8.63535 10.7174C9.04922 10.5447 9.43516 10.3314 9.75 10.0699V10.9688C9.75 12.091 7.56641 13 4.875 13C2.18359 13 0 12.091 0 10.9688V10.0699C0.317383 10.3314 0.700781 10.5447 1.11465 10.7174C2.11758 11.1363 3.44805 11.375 4.875 11.375Z" fill="#222831"/>
</g>
<defs>
<clipPath id="clip0_4_28">
<rect width="13" height="13" fill="white"/>
</clipPath>
</defs>
</svg>
