<svg width="136" height="30" viewBox="0 0 136 30" fill="none" xmlns="http://www.w3.org/2000/svg">
<path d="M18.6602 0.835938C18.582 2.0599 18.5104 3.27083 18.4453 4.46875C18.3802 5.66667 18.2956 6.8776 18.1914 8.10156L9.91016 8.53125V10.9922H17.0977L16.707 17.0469L9.87109 17.2422L9.91016 28.8047L0.0273438 29L0.652344 0.835938H18.6602ZM36.7852 18.6484L35.9648 27.3203L19.5195 28.6094L20.1445 0.71875H30.3008L28.8555 18.6484H36.7852ZM62.332 27.3203L52.6445 28.5703L51.4727 24.1562H47.0195L46.043 28.5703L36.082 27.5938L43.8555 1.57812L54.7148 1.03125L62.332 27.3203ZM50.7695 18.1797L49.2852 11.3828L47.8398 18.1797H50.7695ZM85.8477 24.625C85.2357 25.3932 84.4805 26.0638 83.582 26.6367C82.6836 27.2096 81.7201 27.6849 80.6914 28.0625C79.6628 28.4401 78.6081 28.7266 77.5273 28.9219C76.4466 29.1042 75.418 29.1953 74.4414 29.1953C72.5534 29.1953 70.8151 28.8763 69.2266 28.2383C67.638 27.6003 66.2643 26.7148 65.1055 25.582C63.9596 24.4362 63.0612 23.0755 62.4102 21.5C61.7591 19.9245 61.4336 18.2057 61.4336 16.3438C61.4336 14.9245 61.5964 13.5443 61.9219 12.2031C62.2474 10.862 62.7096 9.60547 63.3086 8.43359C63.9206 7.26172 64.6628 6.1875 65.5352 5.21094C66.4076 4.23438 67.3971 3.39453 68.5039 2.69141C69.6107 1.98828 70.8216 1.44792 72.1367 1.07031C73.4648 0.679688 74.8711 0.484375 76.3555 0.484375C76.9154 0.484375 77.5143 0.510417 78.1523 0.5625C78.7904 0.601562 79.4219 0.679688 80.0469 0.796875C80.6849 0.901042 81.3034 1.05078 81.9023 1.24609C82.5013 1.44141 83.0482 1.68229 83.543 1.96875L82.9961 9.42969C82.2669 9.15625 81.5117 8.97396 80.7305 8.88281C79.9622 8.77865 79.207 8.72656 78.4648 8.72656C77.4232 8.72656 76.4466 8.86979 75.5352 9.15625C74.6367 9.42969 73.849 9.83984 73.1719 10.3867C72.5078 10.9336 71.9805 11.6172 71.5898 12.4375C71.1992 13.2578 71.0039 14.2083 71.0039 15.2891C71.0039 15.9661 71.0951 16.6237 71.2773 17.2617C71.4596 17.8867 71.7331 18.4466 72.0977 18.9414C72.4753 19.4232 72.9375 19.8138 73.4844 20.1133C74.0443 20.4128 74.6888 20.5625 75.418 20.5625C75.9128 20.5625 76.4206 20.4974 76.9414 20.3672C77.4753 20.237 77.931 20.0156 78.3086 19.7031L78.3867 18.1797L73.6992 18.1016L73.9336 12.2422C75.8737 12.1771 77.8138 12.125 79.7539 12.0859C81.694 12.0339 83.6471 11.9688 85.6133 11.8906L85.8477 24.625ZM110.965 24.625C110.353 25.3932 109.598 26.0638 108.699 26.6367C107.801 27.2096 106.837 27.6849 105.809 28.0625C104.78 28.4401 103.725 28.7266 102.645 28.9219C101.564 29.1042 100.535 29.1953 99.5586 29.1953C97.6706 29.1953 95.9323 28.8763 94.3438 28.2383C92.7552 27.6003 91.3815 26.7148 90.2227 25.582C89.0768 24.4362 88.1784 23.0755 87.5273 21.5C86.8763 19.9245 86.5508 18.2057 86.5508 16.3438C86.5508 14.9245 86.7135 13.5443 87.0391 12.2031C87.3646 10.862 87.8268 9.60547 88.4258 8.43359C89.0378 7.26172 89.7799 6.1875 90.6523 5.21094C91.5247 4.23438 92.5143 3.39453 93.6211 2.69141C94.7279 1.98828 95.9388 1.44792 97.2539 1.07031C98.582 0.679688 99.9883 0.484375 101.473 0.484375C102.033 0.484375 102.632 0.510417 103.27 0.5625C103.908 0.601562 104.539 0.679688 105.164 0.796875C105.802 0.901042 106.421 1.05078 107.02 1.24609C107.618 1.44141 108.165 1.68229 108.66 1.96875L108.113 9.42969C107.384 9.15625 106.629 8.97396 105.848 8.88281C105.079 8.77865 104.324 8.72656 103.582 8.72656C102.54 8.72656 101.564 8.86979 100.652 9.15625C99.7539 9.42969 98.9661 9.83984 98.2891 10.3867C97.625 10.9336 97.0977 11.6172 96.707 12.4375C96.3164 13.2578 96.1211 14.2083 96.1211 15.2891C96.1211 15.9661 96.2122 16.6237 96.3945 17.2617C96.5768 17.8867 96.8503 18.4466 97.2148 18.9414C97.5924 19.4232 98.0547 19.8138 98.6016 20.1133C99.1615 20.4128 99.806 20.5625 100.535 20.5625C101.03 20.5625 101.538 20.4974 102.059 20.3672C102.592 20.237 103.048 20.0156 103.426 19.7031L103.504 18.1797L98.8164 18.1016L99.0508 12.2422C100.991 12.1771 102.931 12.125 104.871 12.0859C106.811 12.0339 108.764 11.9688 110.73 11.8906L110.965 24.625ZM135.691 2.55469L126.512 17.5547L126.785 28.6094H116.746L116.98 17.6328L109.832 3.14062L119.793 1.89062L122.918 10.3281L126.316 1.89062L135.691 2.55469Z" fill="#222831"/>
</svg>
