<svg width="15" height="12" viewBox="0 0 15 12" fill="none" xmlns="http://www.w3.org/2000/svg">
<path d="M0 3C0 2.17266 0.672656 1.5 1.5 1.5H6H7.125H7.5H13.5C14.3273 1.5 15 2.17266 15 3V9C15 9.82734 14.3273 10.5 13.5 10.5H7.5H7.125H6H1.5C0.672656 10.5 0 9.82734 0 9V3ZM7.5 3V9H13.5V3H7.5ZM4.17891 4.12266C4.10391 3.95391 3.93516 3.84375 3.75 3.84375C3.56484 3.84375 3.39609 3.95391 3.32109 4.12266L1.82109 7.49766C1.71562 7.73437 1.82344 8.01094 2.06016 8.11641C2.29688 8.22187 2.57344 8.11406 2.67891 7.87734L2.8875 7.40625H4.6125L4.82109 7.87734C4.92656 8.11406 5.20313 8.21953 5.43984 8.11641C5.67656 8.01328 5.78203 7.73437 5.67891 7.49766L4.17891 4.12266ZM3.75 5.46562L4.19531 6.46875H3.30469L3.75 5.46562ZM10.5 3.84375C10.7578 3.84375 10.9688 4.05469 10.9688 4.3125V4.40625H12H12.375C12.6328 4.40625 12.8438 4.61719 12.8438 4.875C12.8438 5.13281 12.6328 5.34375 12.375 5.34375H12.3281L12.2906 5.44922C12.082 6.02109 11.7656 6.54141 11.3625 6.98203C11.3836 6.99609 11.4047 7.00781 11.4258 7.01953L11.8687 7.28437C12.0914 7.41797 12.1617 7.70625 12.0305 7.92656C11.8992 8.14688 11.6086 8.21953 11.3883 8.08828L10.9453 7.82344C10.8398 7.76016 10.7391 7.69453 10.6383 7.62422C10.3898 7.8 10.125 7.95234 9.84141 8.07891L9.75703 8.11641C9.52031 8.22187 9.24375 8.11406 9.13828 7.87734C9.03281 7.64063 9.14063 7.36406 9.37734 7.25859L9.46172 7.22109C9.61172 7.15313 9.75703 7.07812 9.89531 6.99141L9.60938 6.70547C9.42656 6.52266 9.42656 6.225 9.60938 6.04219C9.79219 5.85937 10.0898 5.85937 10.2727 6.04219L10.6148 6.38437L10.6266 6.39609C10.9172 6.08906 11.1539 5.73281 11.325 5.34141H10.5H8.8125C8.55469 5.34141 8.34375 5.13047 8.34375 4.87266C8.34375 4.61484 8.55469 4.40391 8.8125 4.40391H10.0312V4.31016C10.0312 4.05234 10.2422 3.84141 10.5 3.84141V3.84375Z" fill="#222831"/>
</svg>
